<svg width="24" height="18" viewBox="0 0 24 18" fill="none" xmlns="http://www.w3.org/2000/svg">
<path fill-rule="evenodd" clip-rule="evenodd" d="M6.0605 1.36295C6.52913 1.83158 6.52913 2.59137 6.0605 3.06C2.7801 6.34041 2.78009 11.659 6.0605 14.9394C6.52913 15.408 6.52913 16.1678 6.0605 16.6365C5.59187 17.1051 4.83207 17.1051 4.36344 16.6365C0.14578 12.4188 0.14578 5.58061 4.36344 1.36295C4.83207 0.894317 5.59187 0.894317 6.0605 1.36295ZM17.9399 1.36323C18.4085 0.894596 19.1683 0.894596 19.637 1.36323C23.8546 5.58089 23.8546 12.4191 19.637 16.6367C19.1683 17.1054 18.4085 17.1054 17.9399 16.6367C17.4713 16.1681 17.4713 15.4083 17.9399 14.9397C21.2203 11.6593 21.2203 6.34069 17.9399 3.06028C17.4713 2.59165 17.4713 1.83185 17.9399 1.36323ZM9.45462 4.75706C9.92325 5.22569 9.92325 5.98549 9.45462 6.45412C8.04873 7.86 8.04873 10.1394 9.45462 11.5453C9.92325 12.0139 9.92325 12.7737 9.45462 13.2423C8.98599 13.711 8.22619 13.711 7.75756 13.2423C5.41442 10.8992 5.41442 7.1002 7.75756 4.75706C8.22619 4.28843 8.98599 4.28843 9.45462 4.75706ZM14.5458 4.75734C15.0144 4.28871 15.7742 4.28871 16.2428 4.75734C18.586 7.10048 18.586 10.8995 16.2428 13.2426C15.7742 13.7112 15.0144 13.7112 14.5458 13.2426C14.0772 12.774 14.0772 12.0142 14.5458 11.5456C15.9517 10.1397 15.9517 7.86028 14.5458 6.45439C14.0772 5.98576 14.0772 5.22597 14.5458 4.75734ZM12.0002 7.79998C12.6629 7.79998 13.2002 8.33724 13.2002 8.99998V9.01198C13.2002 9.67472 12.6629 10.212 12.0002 10.212C11.3375 10.212 10.8002 9.67472 10.8002 9.01198V8.99998C10.8002 8.33724 11.3375 7.79998 12.0002 7.79998Z" stroke="white" stroke-linecap="round" stroke-linejoin="round"/>
</svg>
